<?xml version="1.0" encoding="UTF-8" standalone="no"?>
<!DOCTYPE svg PUBLIC "-//W3C//DTD SVG 1.1//EN" "http://www.w3.org/Graphics/SVG/1.1/DTD/svg11.dtd">
<svg width="100%" height="100%" viewBox="0 0 206 80" version="1.1" xmlns="http://www.w3.org/2000/svg" xmlns:xlink="http://www.w3.org/1999/xlink" xml:space="preserve" xmlns:serif="http://www.serif.com/" style="fill-rule:evenodd;clip-rule:evenodd;stroke-linejoin:round;stroke-miterlimit:2;">
    <g transform="matrix(1,0,0,1,-118.883,-380.599)">
        <g transform="matrix(0.364459,0,0,0.364459,-36.2962,331.206)">
            <g>
                <g transform="matrix(0.312826,-0.312826,0.312826,0.312826,277.264,307.341)">
                    <path d="M499.433,72.011C499.476,65.112 505.091,59.525 512,59.525C518.936,59.525 524.568,65.156 524.568,72.092L524.568,101.298C524.568,108.234 518.936,113.865 512,113.865C505.064,113.865 499.432,108.234 499.432,101.298L499.432,72.092L499.433,72.011Z" style="fill:rgb(255,176,55);"/>
                </g>
                <g transform="matrix(9.8233e-17,-0.442402,0.442402,9.8233e-17,399.447,465.384)">
                    <path d="M499.433,72.011C499.476,65.112 505.091,59.525 512,59.525C518.936,59.525 524.568,65.156 524.568,72.092L524.568,101.298C524.568,108.234 518.936,113.865 512,113.865C505.064,113.865 499.432,108.234 499.432,101.298L499.432,72.092L499.433,72.011Z" style="fill:rgb(255,176,55);"/>
                </g>
                <g transform="matrix(-0.312826,-0.312826,0.312826,-0.312826,597.597,490.741)">
                    <path d="M499.433,72.011C499.476,65.112 505.091,59.525 512,59.525C518.936,59.525 524.568,65.156 524.568,72.092L524.568,101.298C524.568,108.234 518.936,113.865 512,113.865C505.064,113.865 499.432,108.234 499.432,101.298L499.432,72.092L499.433,72.011Z" style="fill:rgb(255,176,55);"/>
                </g>
                <g transform="matrix(0.442402,0,0,0.442402,302.62,110.578)">
                    <path d="M625.749,183.114L625.749,155.114L625.75,154.976C625.824,143.334 635.299,133.904 646.959,133.904C658.664,133.904 668.168,143.408 668.168,155.114L668.168,395.135L668.167,395.64C667.888,481.606 598.019,551.303 512,551.303C500.294,551.303 490.791,541.8 490.791,530.094C490.791,518.388 500.294,508.885 512,508.885L512,508.724C573.995,508.724 624.457,458.95 625.57,397.221C597.083,427.398 556.725,446.24 512,446.24C425.809,446.24 355.832,376.263 355.832,290.072C355.832,203.881 425.809,133.904 512,133.904C556.82,133.904 597.254,152.826 625.749,183.114ZM512,176.483C574.691,176.483 625.589,227.381 625.589,290.072C625.589,352.763 574.691,403.661 512,403.661C449.309,403.661 398.411,352.763 398.411,290.072C398.411,227.381 449.309,176.483 512,176.483Z" style="fill:rgb(54,69,71);"/>
                </g>
                <g transform="matrix(0.454413,0,0,0.454413,291.9,107.322)">
                    <circle cx="522.058" cy="289.5" r="110.5" style="fill:rgb(255,176,55);"/>
                </g>
                <g transform="matrix(0.442402,0,0,0.442402,302.62,110.578)">
                    <path d="M511.36,190.198L511.5,190.199L511.5,190.199C518.372,190.274 523.928,195.876 523.928,202.766C523.928,209.702 518.296,215.333 511.36,215.333C510.78,215.333 510.208,215.294 509.648,215.217C469.722,216.118 437.479,248.361 436.578,288.288C436.654,288.848 436.694,289.419 436.694,290C436.694,296.936 431.062,302.568 424.126,302.568C417.19,302.568 411.558,296.936 411.558,290C411.558,234.918 456.278,190.198 511.36,190.198Z" style="fill:rgb(255,226,104);"/>
                </g>
            </g>
            <g transform="matrix(0.442402,0,0,0.442402,302.62,109.191)">
                <path d="M499.433,72.011C499.476,65.112 505.091,59.525 512,59.525C518.936,59.525 524.568,65.156 524.568,72.092L524.568,101.298C524.568,108.234 518.936,113.865 512,113.865C505.064,113.865 499.432,108.234 499.432,101.298L499.432,72.092L499.433,72.011Z" style="fill:rgb(255,176,55);"/>
            </g>
        </g>
        <g transform="matrix(3.30451,0,0,3.30451,-1255.01,-1162.89)">
            <g transform="matrix(12,0,0,12,435.477,483.48)">
                <path d="M0.025,-0.153C0.025,-0.187 0.035,-0.216 0.054,-0.241C0.073,-0.267 0.099,-0.286 0.133,-0.3C0.167,-0.314 0.206,-0.321 0.25,-0.321C0.272,-0.321 0.294,-0.319 0.317,-0.316C0.34,-0.313 0.359,-0.307 0.376,-0.3L0.376,-0.328C0.376,-0.361 0.366,-0.386 0.346,-0.403C0.327,-0.421 0.298,-0.43 0.259,-0.43C0.23,-0.43 0.203,-0.425 0.177,-0.415C0.151,-0.405 0.124,-0.39 0.095,-0.371L0.052,-0.459C0.087,-0.482 0.122,-0.499 0.159,-0.51C0.195,-0.521 0.233,-0.527 0.273,-0.527C0.348,-0.527 0.406,-0.509 0.448,-0.472C0.489,-0.435 0.51,-0.382 0.51,-0.314L0.51,-0.149C0.51,-0.136 0.513,-0.126 0.518,-0.12C0.523,-0.114 0.531,-0.11 0.542,-0.109L0.542,-0C0.53,0.002 0.519,0.004 0.509,0.005C0.5,0.006 0.492,0.007 0.485,0.007C0.458,0.007 0.438,0.001 0.425,-0.011C0.411,-0.023 0.402,-0.038 0.399,-0.055L0.396,-0.082C0.373,-0.053 0.345,-0.03 0.311,-0.014C0.277,0.002 0.242,0.01 0.207,0.01C0.172,0.01 0.141,0.003 0.114,-0.011C0.086,-0.025 0.064,-0.045 0.049,-0.07C0.033,-0.094 0.025,-0.122 0.025,-0.153ZM0.351,-0.127C0.358,-0.135 0.364,-0.143 0.369,-0.15C0.374,-0.158 0.376,-0.165 0.376,-0.172L0.376,-0.224C0.36,-0.23 0.343,-0.235 0.324,-0.239C0.305,-0.242 0.288,-0.244 0.271,-0.244C0.236,-0.244 0.208,-0.237 0.186,-0.222C0.163,-0.207 0.152,-0.188 0.152,-0.164C0.152,-0.151 0.156,-0.139 0.163,-0.127C0.17,-0.115 0.181,-0.106 0.195,-0.099C0.209,-0.092 0.226,-0.088 0.245,-0.088C0.265,-0.088 0.285,-0.092 0.304,-0.099C0.323,-0.107 0.339,-0.116 0.351,-0.127Z" style="fill:rgb(54,69,71);fill-rule:nonzero;"/>
            </g>
            <g transform="matrix(12,0,0,12,442.365,483.48)">
                <path d="M0.06,-0.73L0.194,-0.73L0.194,-0.166C0.194,-0.142 0.198,-0.126 0.206,-0.118C0.214,-0.109 0.225,-0.105 0.239,-0.105C0.25,-0.105 0.261,-0.106 0.272,-0.109C0.283,-0.112 0.293,-0.115 0.302,-0.119L0.32,-0.017C0.302,-0.008 0.281,-0.002 0.257,0.003C0.233,0.008 0.211,0.01 0.192,0.01C0.15,0.01 0.117,-0.001 0.095,-0.024C0.071,-0.046 0.06,-0.078 0.06,-0.119L0.06,-0.73Z" style="fill:rgb(54,69,71);fill-rule:nonzero;"/>
            </g>
            <g transform="matrix(12,0,0,12,446.169,483.48)">
                <path d="M0.304,0.01C0.262,0.01 0.224,0.003 0.19,-0.011C0.156,-0.025 0.127,-0.045 0.103,-0.07C0.079,-0.094 0.061,-0.123 0.048,-0.155C0.035,-0.187 0.028,-0.22 0.028,-0.256C0.028,-0.305 0.039,-0.351 0.062,-0.392C0.084,-0.432 0.116,-0.465 0.158,-0.49C0.199,-0.515 0.248,-0.527 0.305,-0.527C0.362,-0.527 0.411,-0.515 0.452,-0.49C0.493,-0.465 0.524,-0.432 0.546,-0.392C0.567,-0.351 0.578,-0.307 0.578,-0.261C0.578,-0.253 0.578,-0.245 0.577,-0.236C0.576,-0.228 0.576,-0.221 0.575,-0.216L0.17,-0.216C0.173,-0.19 0.181,-0.167 0.194,-0.148C0.206,-0.128 0.223,-0.113 0.244,-0.103C0.264,-0.093 0.286,-0.088 0.309,-0.088C0.336,-0.088 0.361,-0.095 0.385,-0.108C0.408,-0.121 0.424,-0.138 0.433,-0.159L0.548,-0.127C0.535,-0.1 0.517,-0.077 0.494,-0.056C0.47,-0.035 0.442,-0.019 0.41,-0.008C0.378,0.004 0.343,0.01 0.304,0.01ZM0.167,-0.301L0.441,-0.301C0.438,-0.327 0.431,-0.35 0.419,-0.369C0.406,-0.388 0.39,-0.403 0.37,-0.414C0.35,-0.425 0.328,-0.43 0.303,-0.43C0.279,-0.43 0.257,-0.425 0.237,-0.414C0.218,-0.403 0.202,-0.388 0.19,-0.369C0.177,-0.35 0.17,-0.327 0.167,-0.301Z" style="fill:rgb(54,69,71);fill-rule:nonzero;"/>
            </g>
            <g transform="matrix(12,0,0,12,453.357,483.48)">
                <path d="M0.373,-0.408C0.332,-0.408 0.296,-0.4 0.264,-0.385C0.232,-0.369 0.209,-0.346 0.195,-0.317L0.195,-0L0.061,-0L0.061,-0.519L0.184,-0.519L0.184,-0.412C0.203,-0.448 0.226,-0.476 0.255,-0.497C0.284,-0.518 0.314,-0.529 0.346,-0.531L0.363,-0.531C0.367,-0.531 0.37,-0.531 0.373,-0.53L0.373,-0.408Z" style="fill:rgb(54,69,71);fill-rule:nonzero;"/>
            </g>
            <g transform="matrix(12,0,0,12,458.001,483.48)">
                <path d="M0.061,-0L0.061,-0.524L0.195,-0.524L0.195,-0L0.061,-0ZM0.061,-0.597L0.061,-0.73L0.195,-0.73L0.195,-0.597L0.061,-0.597Z" style="fill:rgb(54,69,71);fill-rule:nonzero;"/>
            </g>
            <g transform="matrix(12,0,0,12,461.061,483.48)">
                <path d="M0.075,-0L0.075,-0.521L0.143,-0.521L0.143,-0L0.075,-0ZM0.075,-0.63L0.075,-0.73L0.143,-0.73L0.143,-0.63L0.075,-0.63Z" style="fill:rgb(54,69,71);fill-rule:nonzero;"/>
            </g>
            <g transform="matrix(12,0,0,12,463.677,483.48)">
                <path d="M0.04,-0.258C0.04,-0.307 0.05,-0.351 0.07,-0.392C0.091,-0.433 0.119,-0.466 0.155,-0.49C0.191,-0.515 0.232,-0.527 0.278,-0.527C0.321,-0.527 0.36,-0.516 0.395,-0.493C0.429,-0.469 0.456,-0.442 0.475,-0.409L0.475,-0.73L0.543,-0.73L0.543,-0.082C0.543,-0.073 0.545,-0.066 0.549,-0.062C0.553,-0.057 0.559,-0.055 0.567,-0.054L0.567,-0C0.554,0.002 0.543,0.003 0.536,0.002C0.522,0.001 0.51,-0.004 0.499,-0.015C0.488,-0.026 0.483,-0.037 0.483,-0.05L0.483,-0.101C0.462,-0.067 0.434,-0.04 0.399,-0.02C0.364,-0 0.327,0.01 0.289,0.01C0.253,0.01 0.22,0.003 0.19,-0.012C0.159,-0.026 0.133,-0.046 0.111,-0.072C0.088,-0.097 0.071,-0.125 0.059,-0.158C0.046,-0.19 0.04,-0.223 0.04,-0.258ZM0.475,-0.178L0.475,-0.338C0.466,-0.362 0.452,-0.383 0.433,-0.403C0.414,-0.422 0.392,-0.438 0.368,-0.45C0.343,-0.461 0.319,-0.467 0.295,-0.467C0.267,-0.467 0.242,-0.461 0.219,-0.45C0.196,-0.438 0.177,-0.422 0.161,-0.402C0.144,-0.383 0.132,-0.36 0.123,-0.335C0.114,-0.31 0.11,-0.284 0.11,-0.258C0.11,-0.23 0.115,-0.203 0.125,-0.178C0.134,-0.153 0.148,-0.131 0.166,-0.111C0.184,-0.092 0.205,-0.076 0.228,-0.066C0.251,-0.055 0.277,-0.05 0.304,-0.05C0.321,-0.05 0.339,-0.053 0.358,-0.06C0.377,-0.067 0.395,-0.076 0.411,-0.087C0.429,-0.099 0.443,-0.113 0.454,-0.128C0.465,-0.144 0.472,-0.161 0.475,-0.178Z" style="fill:rgb(54,69,71);fill-rule:nonzero;"/>
            </g>
            <g transform="matrix(12,0,0,12,471.141,483.48)">
                <path d="M0.3,0.01C0.263,0.01 0.228,0.003 0.196,-0.011C0.164,-0.026 0.136,-0.045 0.113,-0.07C0.09,-0.095 0.071,-0.124 0.059,-0.156C0.046,-0.189 0.039,-0.224 0.039,-0.261C0.039,-0.309 0.05,-0.354 0.073,-0.394C0.095,-0.434 0.126,-0.467 0.165,-0.491C0.204,-0.515 0.249,-0.527 0.299,-0.527C0.35,-0.527 0.395,-0.515 0.434,-0.49C0.472,-0.466 0.502,-0.433 0.524,-0.393C0.546,-0.353 0.557,-0.309 0.557,-0.262L0.557,-0.246C0.557,-0.241 0.557,-0.238 0.556,-0.235L0.11,-0.235C0.113,-0.198 0.124,-0.165 0.141,-0.136C0.159,-0.107 0.182,-0.084 0.211,-0.067C0.239,-0.05 0.27,-0.042 0.303,-0.042C0.337,-0.042 0.369,-0.051 0.4,-0.068C0.43,-0.085 0.451,-0.108 0.463,-0.136L0.522,-0.12C0.511,-0.095 0.495,-0.073 0.473,-0.053C0.451,-0.033 0.425,-0.018 0.396,-0.007C0.366,0.004 0.334,0.01 0.3,0.01ZM0.108,-0.284L0.493,-0.284C0.49,-0.322 0.48,-0.355 0.463,-0.383C0.445,-0.411 0.422,-0.434 0.394,-0.45C0.365,-0.466 0.334,-0.474 0.3,-0.474C0.266,-0.474 0.235,-0.466 0.207,-0.45C0.179,-0.434 0.156,-0.411 0.139,-0.382C0.121,-0.354 0.111,-0.321 0.108,-0.284Z" style="fill:rgb(54,69,71);fill-rule:nonzero;"/>
            </g>
        </g>
    </g>
</svg>
